<?xml version="1.0" encoding="utf-8"?>
<!-- Generator: Adobe Illustrator 16.0.4, SVG Export Plug-In . SVG Version: 6.00 Build 0)  -->
<!DOCTYPE svg PUBLIC "-//W3C//DTD SVG 1.1//EN" "http://www.w3.org/Graphics/SVG/1.1/DTD/svg11.dtd">
<svg version="1.1" xmlns="http://www.w3.org/2000/svg" xmlns:xlink="http://www.w3.org/1999/xlink" x="0px" y="0px" width="45px"
	 height="89.819px" viewBox="0 0 45 89.819" enable-background="new 0 0 45 89.819" xml:space="preserve">
<g id="Layer_1_1_">
</g>
<g id="Original" display="none">
</g>
<g id="Red">
</g>
<g id="Green">
</g>
<g id="Black">
	<g>
		<path fill="#666666" d="M30.433,55.199c0-6.249,2.641-11.884,6.873-15.879H39.5v-10h-6.317c3.332-4.644,3.336-11.037-0.254-15.72
			L22.5,0L12.071,13.601c-3.59,4.683-3.586,11.076-0.254,15.72H5.5v10h2.194c4.232,3.995,6.873,9.63,6.873,15.879
			c0,9.481-6.068,17.557-14.567,20.62v14h45v-14C36.501,72.756,30.433,64.681,30.433,55.199z"/>
	</g>
	<g opacity="0.8">
		<path opacity="0.01" d="M12.071,13.601c-3.59,4.683-3.586,11.076-0.254,15.72H22.5V0L12.071,13.601z"/>
		<path opacity="0.4" d="M32.929,13.601L22.5,0v29.32h10.683C36.515,24.677,36.519,18.283,32.929,13.601z"/>
		<rect x="5.5" y="29.32" opacity="0.01" width="17" height="10"/>
		<rect x="22.5" y="29.32" opacity="0.5" width="17" height="10"/>
		<path opacity="0.3" d="M7.694,39.32c4.232,3.995,6.873,9.63,6.873,15.879c0,9.481-6.068,17.557-14.567,20.62h22.5V39.32H7.694z"/>
		<path d="M30.433,55.199c0-6.249,2.641-11.884,6.873-15.879H22.5v36.499H45C36.501,72.756,30.433,64.681,30.433,55.199z"/>
		<rect y="75.819" opacity="0.01" width="22.5" height="14"/>
		<rect x="22.5" y="75.819" opacity="0.4" width="22.5" height="14"/>
	</g>
</g>
<g id="BlackX" display="none">
</g>
<g id="White">
</g>
</svg>
