<?xml version="1.0" encoding="utf-8"?>
<!-- Generator: Adobe Illustrator 16.0.4, SVG Export Plug-In . SVG Version: 6.00 Build 0)  -->
<!DOCTYPE svg PUBLIC "-//W3C//DTD SVG 1.1//EN" "http://www.w3.org/Graphics/SVG/1.1/DTD/svg11.dtd">
<svg version="1.1" xmlns="http://www.w3.org/2000/svg" xmlns:xlink="http://www.w3.org/1999/xlink" x="0px" y="0px"
	 width="45.444px" height="70.675px" viewBox="0 0 45.444 70.675" enable-background="new 0 0 45.444 70.675" xml:space="preserve">
<g id="Layer_1_1_">
</g>
<g id="Original" display="none">
</g>
<g id="Red">
</g>
<g id="Green">
</g>
<g id="Black">
	<g>
		<path fill="#666666" d="M43.87,34.195c0-8.794-3.593-16.699-9.284-22.391C30.121,7.34,23.045,3.843,14.359,0
			c0,2.457,0.005,4.754,1.521,6.271L0.113,24.355c0.454,0.598,0.727,1.342,0.727,2.154c0,0.881-0.316,1.684-0.84,2.308l5.775,4.797
			c4.197-3.997,11.545-7.658,17.169-7.658L5.926,47.854l6.528,9.821H0.444v13h45v-13h-12.01
			C39.828,51.965,43.87,43.565,43.87,34.195z"/>
	</g>
	<g opacity="0.8">
		<polygon opacity="0.3" points="5.926,47.854 12.454,57.675 22.944,57.675 22.944,47.854 		"/>
		<path d="M34.586,11.805C30.121,7.34,23.045,3.843,14.359,0c3.656,2.55,9.305,6.091,13.168,9.954
			c4.617,4.618,7.495,10.977,7.683,18.02c0.233,8.738-4.828,16.385-12.266,19.875v9.826h10.49
			c6.394-5.71,10.436-14.109,10.436-23.479C43.87,25.401,40.277,17.496,34.586,11.805z"/>
		<path opacity="0.01" d="M22.944,47.849c7.438-3.49,12.499-11.137,12.266-19.875c-0.188-7.043-3.065-13.401-7.683-18.02
			C23.664,6.091,18.016,2.55,14.359,0c0,2.457,0.005,4.754,1.521,6.271L0.113,24.355c0.454,0.598,0.727,1.342,0.727,2.154
			c0,0.881-0.316,1.684-0.84,2.308l5.775,4.797c4.197-3.997,11.545-7.658,17.169-7.658L5.926,47.854h17.019V47.849z"/>
		<rect x="22.944" y="57.675" opacity="0.4" width="22.5" height="13"/>
		<rect x="0.444" y="57.675" opacity="0.01" width="22.5" height="13"/>
	</g>
</g>
<g id="BlackX" display="none">
</g>
<g id="White">
</g>
</svg>
