<?xml version="1.0" encoding="utf-8"?>
<!-- Generator: Adobe Illustrator 16.0.4, SVG Export Plug-In . SVG Version: 6.00 Build 0)  -->
<!DOCTYPE svg PUBLIC "-//W3C//DTD SVG 1.1//EN" "http://www.w3.org/Graphics/SVG/1.1/DTD/svg11.dtd">
<svg version="1.1" xmlns="http://www.w3.org/2000/svg" xmlns:xlink="http://www.w3.org/1999/xlink" x="0px" y="0px" width="52.5px"
	 height="105.875px" viewBox="0 0 52.5 105.875" enable-background="new 0 0 52.5 105.875" xml:space="preserve">
<g id="Layer_1_1_">
</g>
<g id="Original" display="none">
</g>
<g id="Red">
</g>
<g id="Green">
</g>
<g id="Black">
</g>
<g id="BlackX" display="none">
</g>
<g id="White">
	<g>
		<path fill="#E8E8E8" d="M34.559,61.058c0-7.342,2.364-14.133,6.369-19.682h2.822v-11h-6.148l3.524-7
			c0-7.339-5.319-13.421-12.309-14.64C30.128,7.891,31,6.425,31,4.75C31,2.127,28.873,0,26.25,0c-2.624,0-4.75,2.127-4.75,4.75
			c0,1.675,0.872,3.141,2.183,3.986c-6.99,1.22-12.309,7.302-12.309,14.64l3.524,7H8.75v11h2.822
			c4.005,5.549,6.369,12.34,6.369,19.682c0,12.885-7.257,24.088-17.941,29.817v15h52.5v-15
			C41.815,85.146,34.559,73.942,34.559,61.058z"/>
	</g>
	<g>
		<path opacity="0.01" d="M11.374,23.376H26.25V8.5C18.034,8.5,11.374,15.16,11.374,23.376z"/>
		<path opacity="0.1" d="M26.251,8.5L26.251,8.5L26.25,23.376h14.876C41.126,15.16,34.466,8.5,26.251,8.5z"/>
		<polygon opacity="0.05" points="11.374,23.376 14.898,30.376 26.25,30.376 26.25,23.376 		"/>
		<polygon opacity="0.2" points="41.126,23.376 26.25,23.376 26.25,30.376 37.602,30.376 		"/>
		<rect x="8.75" y="30.376" opacity="0.01" width="17.5" height="11"/>
		<rect x="26.25" y="30.376" opacity="0.1" width="17.5" height="11"/>
		<path opacity="0.05" d="M11.572,41.376c4.005,5.549,6.369,12.34,6.369,19.682c0,12.885-7.257,24.088-17.941,29.817h26.25V41.376
			H11.572z"/>
		<path opacity="0.2" d="M34.559,61.058c0-7.342,2.364-14.133,6.369-19.682H26.25v49.499H52.5
			C41.815,85.146,34.559,73.942,34.559,61.058z"/>
		<rect y="90.875" opacity="0.01" width="26.25" height="15"/>
		<rect x="26.25" y="90.875" opacity="0.13" width="26.25" height="15"/>
		<path opacity="0.01" d="M21.5,4.75c0,1.675,0.872,3.141,2.182,3.986C24.518,8.591,25.373,8.5,26.25,8.5V0
			C23.626,0,21.5,2.127,21.5,4.75z"/>
		<path opacity="0.13" d="M26.251,8.5c0.877,0,1.731,0.091,2.566,0.236C30.128,7.891,31,6.425,31,4.75C31,2.127,28.873,0,26.25,0
			v9.5h0.001V8.5z"/>
	</g>
</g>
</svg>
